<svg width="79" height="79" viewBox="0 0 79 79" fill="none" xmlns="http://www.w3.org/2000/svg">
<path fill-rule="evenodd" clip-rule="evenodd" d="M39.5 3L50.7791 4.78644L60.9542 9.97088L69.0291 18.0458L74.2136 28.2209L76 39.5L74.2136 50.7791L69.0291 60.9542L60.9542 69.0291L50.7791 74.2136L39.5 76L28.2209 74.2136L18.0458 69.0291L9.97088 60.9542L4.78644 50.7791L3 39.5L4.78644 28.2209L9.97088 18.0458L18.0458 9.97088L28.2209 4.78644L39.5 3Z" stroke="white" stroke-width="4"/>
<path d="M50.5 52.5L47.5603 55.4397L43.8561 57.3271L39.75 57.9774L35.6439 57.3271L31.9397 55.4397L29 52.5" stroke="white" stroke-width="4"/>
<path fill-rule="evenodd" clip-rule="evenodd" d="M29.75 27.5L30.2908 27.5857L30.7786 27.8342L31.1658 28.2214L31.4143 28.7092L31.5 29.25L31.4143 29.7908L31.1658 30.2786L30.7786 30.6658L30.2908 30.9143L29.75 31L29.2092 30.9143L28.7214 30.6658L28.3342 30.2786L28.0857 29.7908L28 29.25L28.0857 28.7092L28.3342 28.2214L28.7214 27.8342L29.2092 27.5857L29.75 27.5Z" stroke="white" stroke-width="4"/>
<path fill-rule="evenodd" clip-rule="evenodd" d="M49.25 27.5L49.7908 27.5857L50.2786 27.8342L50.6658 28.2214L50.9143 28.7092L51 29.25L50.9143 29.7908L50.6658 30.2786L50.2786 30.6658L49.7908 30.9143L49.25 31L48.7092 30.9143L48.2214 30.6658L47.8342 30.2786L47.5857 29.7908L47.5 29.25L47.5857 28.7092L47.8342 28.2214L48.2214 27.8342L48.7092 27.5857L49.25 27.5Z" stroke="white" stroke-width="4"/>
<path d="M36.1329 25L36.5 27.3176L36.1329 29.6353L35.0676 31.726L33.4084 33.3853L31.3176 34.4506L29 34.8176L26.6824 34.4506L24.5916 33.3853L22.9324 31.726L21.8671 29.6353L21.5 27.3176L21.8671 25" stroke="white" stroke-width="4"/>
<path d="M20 26.3174H38" stroke="white" stroke-width="4"/>
<rect x="23.5" y="26.8174" width="11" height="6" fill="white"/>
<path d="M57.6329 25L58 27.3176L57.6329 29.6353L56.5676 31.726L54.9084 33.3853L52.8176 34.4506L50.5 34.8176L48.1824 34.4506L46.0916 33.3853L44.4324 31.726L43.3671 29.6353L43 27.3176L43.3671 25" stroke="white" stroke-width="4"/>
<path d="M41.5 26.3174H59.5" stroke="white" stroke-width="4"/>
<rect x="45" y="26.8174" width="11" height="6" fill="white"/>
<line x1="37" y1="25.3203" x2="42" y2="25.3203" stroke="white" stroke-width="2"/>
<line x1="58.2567" y1="25.331" x2="67.2567" y2="15.331" stroke="white" stroke-width="2"/>
<line x1="22.2601" y1="26.6727" x2="12.2601" y2="15.6727" stroke="white" stroke-width="2"/>
</svg>
